<svg xmlns="http://www.w3.org/2000/svg" viewBox="0 0 512 512" fill="#0078D7"><path d="M485.4 207c-2.4-18.7-8.1-36.8-16.7-53.7-18.8-37-47.5-67.6-83-88.6C349.5 43.1 306.9 32 263.8 32c-56 0-109.8 19-152.9 53.6-43.2 34.6-73.6 81.3-87.1 134.4-4.8 18.9-7.3 38.3-7.3 57.9 0 35.8 8.1 70.9 23.9 102.6 15.8 31.8 38.3 59.5 65.5 80.9 31.8 24.9 70.1 41.5 111.4 47.9 20.3 3.1 41 3.5 61.4 1 21.8-2.6 43-8.8 62.9-18.1-23.7 13.9-50.5 21.3-78.2 21.3-84.5 0-153.3-68.8-153.3-153.3 0-21.7 4.5-42.3 12.7-61.1 13.9-31.9 37.3-58.4 67-75.7 30.6-17.8 65.3-27.1 101.4-27.1 59 0 114.4 24.5 154.5 67.2 16.5 17.6 29.8 38.1 39.3 60.1 7.7 17.7 13 36.4 15.7 55.6 1.7 12 2.6 24.1 2.6 36.3 0 16.9-1.6 33.7-4.8 50.1l32.2-41.9c13.7-17.8 23.3-38 28.2-59.5 3.3-14.5 5-29.3 5-44.2 0-25.2-4.1-49.9-12.2-73.4z"/></svg>
