<svg xmlns="http://www.w3.org/2000/svg" viewBox="0 0 512 512" fill="#E66000"><path d="M492.2 216c-11.6-47-38.3-88.7-75.1-118-20.7-16.5-44.5-28.7-70.1-35.9-25.6-7.2-52.5-9.3-79-6.3-26.6 3-52.2 11.2-75.4 24.1-23.2 12.8-43.8 29.8-60.6 50.1-16.9 20.3-29.6 43.6-37.4 68.6-7.8 25.1-11 51.5-9.4 77.8 1.5 26.3 8.3 52 20.1 75.7 11.7 23.8 27.6 45 46.9 62.6 19.3 17.5 41.5 31.4 65.6 40.8 24.1 9.4 49.8 14 75.8 13.5 26-.5 51.7-6.2 75.6-16.7 23.9-10.4 45.7-25.2 64.1-43.5 18.5-18.3 33.3-40 43.6-64.1 10.2-24 15.6-49.8 15.8-76 0-26.1-5.1-51.8-15.1-75.8-10.1-24.1-24.7-45.9-43-64.4zm-143.2 173.8c-12 11.7-27.1 20.6-43.7 25.7-16.6 5.1-34.4 6.3-51.5 3.3-17.1-3-33.3-10-47-20.3-13.7-10.3-24.5-24-31.3-39.6-6.8-15.7-9.5-32.9-7.8-50 .1-1.7.3-3.4.6-5.1 1.7-16.5 7.1-32.2 15.6-46 8.6-13.9 19.9-25.7 33.1-34.6 13.2-8.9 28.2-14.8 43.9-17.3 15.7-2.5 31.8-1.5 47 2.8 15.2 4.3 29.2 11.8 41 21.8 11.8 10 21.3 22.4 27.6 36.4 6.3 14 9.6 29.4 9.5 44.9-.1 15.5-3.6 30.8-10.2 44.6-6.5 13.8-15.9 26.1-27.4 36z"/></svg>
