<svg xmlns="http://www.w3.org/2000/svg" viewBox="0 0 512 512" fill="#4285F4"><path d="M256 26c-127 0-230 103-230 230s103 230 230 230 230-103 230-230S383 26 256 26zm0 184c25.4 0 46 20.6 46 46s-20.6 46-46 46-46-20.6-46-46 20.6-46 46-46zm182 46c0 100.5-81.5 182-182 182-41 0-78.8-13.6-109.2-36.5l82.7-143.3c7.8 4.6 16.9 7.3 26.5 7.3 29.5 0 53.5-24 53.5-53.5 0-9.6-2.7-18.7-7.3-26.5l85 147c-2 24.3-15.6 45.4-36.5 56.2zM256 74c100.5 0 182 81.5 182 182 0 11.8-1.1 23.4-3.3 34.6L288 141.5c16.9-6.5 35.5-1.5 48.2 11.2l-83-143.7c1.3-.1 2.5-.2 3.8-.2zM74 256c0-100.5 81.5-182 182-182 41 0 78.8 13.6 109.2 36.5l-82.7 143.3c-7.8-4.6-16.9-7.3-26.5-7.3-29.5 0-53.5 24-53.5 53.5 0 9.6 2.7 18.7 7.3 26.5L124.8 180c2-24.3 15.6-45.4 36.5-56.2C103.6 141.6 74 195.4 74 256z"/></svg>
